<svg
  height={42 * (scale / 100)}
  fill="none"
  viewBox="0 0 116 42"
  width={116 * (scale / 100)}
  xmlns="http://www.w3.org/2000/svg"
>
  <path
    fillRule="evenodd"
    clipRule="evenodd"
    d="M21.6105 2.53264C11.4775 3.82441 1.63998 10.8259 1.63998 21.0409C1.63998 31.256 11.0124 37.5562 21.0638 39.3774C30.4813 41.0838 38.1406 33.5813 40.1187 21.0409C41.8704 9.93606 33.3179 1.04016 21.6104 2.53264H21.6105ZM21.6105 10.8614C27.2287 10.8614 31.79 15.4227 31.79 21.0409C31.79 26.6592 27.2287 31.2205 21.6105 31.2205C15.9922 31.2205 11.4309 26.6592 11.4309 21.0409C11.4309 15.4227 15.9922 10.8614 21.6105 10.8614Z"
    fill="#E983D3"
  />
  <path
    fillRule="evenodd"
    clipRule="evenodd"
    d="M21.6102 5.30885C13.015 6.53938 4.78152 12.413 4.78152 21.0957C4.78152 29.7785 12.9334 37.6624 21.6102 37.9865C31.5904 38.3592 37.2076 29.4582 37.3422 21.0409C37.5038 10.9417 31.8291 3.84581 21.6102 5.30885ZM21.6102 10.8613C27.2284 10.8613 31.7897 15.4226 31.7897 21.0409C31.7897 26.6592 27.2284 31.2205 21.6102 31.2205C15.9919 31.2205 11.4306 26.6592 11.4306 21.0409C11.4306 15.4226 15.9919 10.8613 21.6102 10.8613Z"
    fill="#D052B5"
  />
  <path
    fillRule="evenodd"
    clipRule="evenodd"
    d="M21.6105 8.08524C14.5035 8.87306 7.50586 13.8905 7.50586 21.041C7.50586 28.1916 14.5199 33.073 21.6105 33.9969C29.647 35.044 34.1665 29.0297 34.5663 21.041C34.9884 12.6076 29.8581 7.17094 21.6105 8.08524ZM21.6105 10.8615C27.2287 10.8615 31.79 15.4228 31.79 21.041C31.79 26.6593 27.2287 31.2206 21.6105 31.2206C15.9922 31.2206 11.4309 26.6593 11.4309 21.041C11.4309 15.4228 15.9922 10.8615 21.6105 10.8615Z"
    fill="#A72A8C"
  />
  <path
    d="M50 30.81L58.43 10.95H61.25L69.68 30.81H67.19L64.76 25.05H54.92L52.49 30.81H50ZM55.79 22.98H63.89L59.84 13.29L55.79 22.98Z"
    fill="#A72A8C"
  />
  <path
    d="M78.6045 31.05C77.5845 31.05 76.6145 30.81 75.6945 30.33C74.7745 29.83 74.0245 29.1 73.4445 28.14C72.8845 27.16 72.6045 25.96 72.6045 24.54V15.81H74.8545V24.48C74.8545 25.84 75.2445 26.94 76.0245 27.78C76.8245 28.6 77.8345 29.01 79.0545 29.01C79.8945 29.01 80.6545 28.82 81.3345 28.44C82.0145 28.04 82.5545 27.5 82.9545 26.82C83.3745 26.14 83.5845 25.35 83.5845 24.45V15.81H85.8345V30.81H83.5845V28.47C83.0445 29.19 82.3845 29.8 81.6045 30.3C80.8245 30.8 79.8245 31.05 78.6045 31.05Z"
    fill="#A72A8C"
  />
  <path
    d="M91.2467 30.81V15.81H93.4967V19.5C93.5767 19.24 93.7267 18.9 93.9467 18.48C94.1867 18.04 94.5267 17.6 94.9667 17.16C95.4067 16.72 95.9567 16.35 96.6167 16.05C97.2967 15.73 98.0967 15.57 99.0167 15.57H99.1667V17.82H98.8967C97.7767 17.82 96.8067 18.13 95.9867 18.75C95.1867 19.35 94.5667 20.14 94.1267 21.12C93.7067 22.08 93.4967 23.11 93.4967 24.21V30.81H91.2467Z"
    fill="#A72A8C"
  />
  <path
    d="M107.919 31.05C106.459 31.05 105.179 30.71 104.079 30.03C102.999 29.33 102.159 28.39 101.559 27.21C100.959 26.03 100.659 24.73 100.659 23.31C100.659 21.87 100.959 20.57 101.559 19.41C102.159 18.23 102.999 17.3 104.079 16.62C105.179 15.92 106.459 15.57 107.919 15.57C109.159 15.57 110.219 15.81 111.099 16.29C111.999 16.77 112.729 17.42 113.289 18.24V15.81H115.539V30.81H113.289V28.41C112.729 29.21 111.999 29.85 111.099 30.33C110.219 30.81 109.159 31.05 107.919 31.05ZM108.219 29.01C109.339 29.01 110.279 28.75 111.039 28.23C111.819 27.71 112.409 27.02 112.809 26.16C113.209 25.28 113.409 24.33 113.409 23.31C113.409 22.27 113.209 21.32 112.809 20.46C112.409 19.6 111.819 18.91 111.039 18.39C110.279 17.87 109.339 17.61 108.219 17.61C107.119 17.61 106.169 17.87 105.369 18.39C104.569 18.91 103.959 19.6 103.539 20.46C103.119 21.32 102.909 22.27 102.909 23.31C102.909 24.33 103.119 25.28 103.539 26.16C103.959 27.02 104.569 27.71 105.369 28.23C106.169 28.75 107.119 29.01 108.219 29.01Z"
    fill="#A72A8C"
  />
</svg>